<svg width="96" height="96" viewBox="0 0 96 96" fill="none" xmlns="http://www.w3.org/2000/svg">
  <rect width="96" height="96" rx="24" fill="#F8FBFB"/>
  <circle cx="48" cy="50" r="29" fill="#116B63"/>
  <circle cx="48" cy="50" r="21" fill="#F8FBFB"/>
  <path d="M48 34V50L60 58" stroke="#116B63" stroke-width="6" stroke-linecap="round" stroke-linejoin="round"/>
  <path d="M40 22C43 15 50 13 56 17C52 23 47 25 40 22Z" fill="#F2B84B"/>
  <path d="M38 25C32 20 32 14 37 9C42 15 43 20 38 25Z" fill="#D45D4C"/>
  <path d="M58 24C63 20 69 21 72 27C65 29 61 28 58 24Z" fill="#D45D4C"/>
  <path d="M48 13V24" stroke="#116B63" stroke-width="5" stroke-linecap="round"/>
  <circle cx="48" cy="50" r="4" fill="#D45D4C"/>
  <path d="M29 78H67" stroke="#116B63" stroke-width="5" stroke-linecap="round"/>
</svg>
